<svg xmlns="http://www.w3.org/2000/svg" viewBox="0 0 367 367"><defs><style>.cls-1{fill:#fbfcff;}</style></defs><g id="Layer_2" data-name="Layer 2"><g id="Layer_2-2" data-name="Layer 2"><rect width="367" height="367" rx="183.5"/><path class="cls-1" d="M331.74,183.5l-.65-.65a104.44,104.44,0,0,0-72.17-30.6,104.4,104.4,0,0,0,29.4-72.67v-.9h-.9A104.52,104.52,0,0,0,214.78,108a104,104,0,0,0-30.65-72.11l-.63-.65-.63.65A104,104,0,0,0,152.22,108,104.52,104.52,0,0,0,79.58,78.68h-.9v.9a104.4,104.4,0,0,0,29.4,72.67,104.37,104.37,0,0,0-72.17,30.62l-.65.63.65.63a104.35,104.35,0,0,0,72.17,30.6,104.45,104.45,0,0,0-29.4,72.69v.9h.9A104.45,104.45,0,0,0,152.22,259a104.06,104.06,0,0,0,30.65,72.13l.63.65.63-.65A104.06,104.06,0,0,0,214.78,259a104.45,104.45,0,0,0,72.64,29.36h.9v-.9a104.45,104.45,0,0,0-29.4-72.69,104.35,104.35,0,0,0,72.17-30.6Zm-77.19,29.43a102.66,102.66,0,0,1-68.77-28.48A102.56,102.56,0,0,1,254.55,212.93Zm-68.77-30.38a102.66,102.66,0,0,1,68.77-28.48A102.75,102.75,0,0,1,185.78,182.55Zm-1.33-1.35A102.49,102.49,0,0,1,213,112.39,102.32,102.32,0,0,1,184.45,181.2Zm-1.9,0A102.32,102.32,0,0,1,154,112.39,102.49,102.49,0,0,1,182.55,181.2Zm-70.1-27.13a102.57,102.57,0,0,1,68.75,28.48A102.74,102.74,0,0,1,112.45,154.07Zm68.77,30.38a102.66,102.66,0,0,1-68.77,28.48A102.56,102.56,0,0,1,181.22,184.45Zm1.33,1.33A102.54,102.54,0,0,1,154,254.61,102.38,102.38,0,0,1,182.55,185.78Zm1.9,0A102.38,102.38,0,0,1,213,254.61,102.54,102.54,0,0,1,184.45,185.78Z"/></g></g></svg>